<svg width="48" height="16" version="1.1" viewBox="0 0 48 16" xmlns="http://www.w3.org/2000/svg" xmlns:xlink="http://www.w3.org/1999/xlink">
 <defs>
  <linearGradient id="starGradient" x1="24.5" x2="24.5" y1="1081" y2="1121" gradientTransform="matrix(.318 0 0 .317 30.5 -342)" gradientUnits="userSpaceOnUse">
   <stop stop-color="#f9f3ac" offset="0"/>
   <stop stop-color="#ffdc46" offset="1"/>
  </linearGradient>
  <linearGradient id="linearGradient1029" x1="5" x2="5" y1=".842" y2="9.16" gradientUnits="userSpaceOnUse">
   <stop stop-color="#fff" offset="0"/>
   <stop stop-color="#e3f1fc" offset="1"/>
  </linearGradient>
 </defs>
 <g transform="matrix(.769 0 0 .769 4.66 -.923)" fill="#169103">
  <path d="m56.3 10-2.4 1.4c-1.2-.9-2.6-1.4-4.1-1.4-3.08 0-5.64 2.13-6.31 5h2.64c.595-1.46 2-2.5 3.67-2.5.9 0 1.6.199 2.3.699l-1.8 2.8h6z"/>
  <path d="m43.3 16v6l2.4-1.4c1.2.9 2.6 1.4 4.1 1.4 3.08 0 5.64-2.13 6.31-5h-2.64c-.595 1.46-2 2.5-3.67 2.5-.9 0-1.6-.199-2.3-.699l1.8-2.8z"/>
 </g>
 <use transform="translate(6,6)" width="100%" height="100%" xlink:href="#file-individual"/>
 <use transform="translate(4,4)" width="100%" height="100%" xlink:href="#file-individual"/>
 <use transform="translate(2,2)" width="100%" height="100%" xlink:href="#file-individual"/>
 <g id="file-individual">
  <path d="m1 0h8v10h-8z" fill="url(#linearGradient1029)"/>
  <path d="m1 0v10h8v-10zm1 1h6v8h-6z" fill="#9c9c9c"/>
 </g>
 <path d="m34.5 9.81c.213-2.14.213-2.14-.921-3.23-1.66-1.6-1.52-2.14.636-2.41 1.76-.22 1.78-.23 2.61-1.93.488-.992 1.05-1.7 1.34-1.7.293 0 .856.717 1.35 1.72.841 1.71.854 1.72 2.61 1.94 2.15.268 2.28.789.629 2.38-1.13 1.09-1.13 1.09-.921 3.23.251 2.52.0228 2.65-2.26 1.32-1.41-.823-1.41-.823-2.81 0-2.28 1.33-2.51 1.2-2.26-1.32z" fill="url(#starGradient)"/>
 <path d="m38.3.0747c-.299 0-.462.127-.608.245s-.274.261-.405.427c-.261.332-.523.762-.769 1.26-.396.805-.589 1.13-.738 1.24-.15.111-.468.179-1.3.283-.535.0666-.96.148-1.32.287-.357.139-.715.384-.825.8-.11.417.0548.788.274 1.12.219.328.53.662.939 1.06.539.519.706.698.767.911.0608.213.0395.683-.0619 1.7-.0605.607-.0956 1.08-.0709 1.47.0124.198.0374.381.108.566.071.185.207.383.411.502.408.238.81.117 1.19-.0353.379-.152.808-.391 1.36-.712.669-.391.938-.508 1.05-.508.114 0 .383.117 1.05.508.549.321.981.56 1.36.712s.779.274 1.19.0353c.204-.119.34-.317.411-.502s.0959-.367.108-.566c.025-.397-.01-.867-.0707-1.47-.102-1.02-.123-1.49-.0619-1.7.0608-.213.228-.392.767-.911.407-.392.717-.723.935-1.05.218-.325.386-.693.276-1.11-.11-.416-.467-.657-.822-.794s-.779-.217-1.31-.283c-.833-.104-1.15-.169-1.3-.281-.15-.111-.343-.437-.743-1.25-.248-.505-.514-.94-.776-1.27-.131-.167-.258-.31-.405-.429-.146-.119-.31-.248-.61-.248zm0 1.24c.042.044.0734.0701.126.137.192.245.428.627.648 1.07.4.814.612 1.31 1.09 1.66.473.351.997.391 1.83.495.488.0608.849.14 1.04.214.194.075.154.1.135.0288-.0188-.071.0143-.0142-.122.188-.136.202-.401.501-.78.866-.539.519-.912.86-1.07 1.41-.158.555-.0772 1.1.0244 2.12.0588.589.0826 1.03.0664 1.29-.004.0725-.012.0881-.02.128.008-.01.0469-.00099-.137-.0752-.264-.106-.672-.326-1.21-.639-.669-.391-1.07-.663-1.62-.663-.555 0-.954.272-1.62.663-.535.313-.945.533-1.21.639-.184.0736-.145.065-.137.0752-.008-.04-.0154-.0558-.02-.128-.0164-.26.01-.704.0686-1.29.102-1.02.182-1.56.0244-2.12-.158-.555-.533-.896-1.07-1.41-.381-.367-.646-.669-.783-.873-.136-.204-.104-.263-.122-.197-.0174.0661-.0541.0409.141-.0353.196-.0763.555-.158 1.05-.219.838-.105 1.36-.146 1.84-.495.474-.349.684-.84 1.08-1.65.217-.442.452-.82.643-1.06.0515-.0656.0824-.0894.124-.133z" fill="#cd9a34"/>
 <path d="m17 2v1h2v-1z" fill="#a7dd8c"/>
 <path d="m20 2v1h7v-1h-7zm8 0v1h3v-1h-3zm-8 2v1h7v-1h-7zm8 0v1h3v-1h-3zm-8 2v1h7v-1h-7zm8 0v1h3v-1h-3zm-8 3v1h7v-1h-7zm8 0v1h3v-1h-3zm-8 2v1h7v-1h-7zm8 0v1h3v-1h-3zm-8 2v1h7v-1h-7zm8 0v1h3v-1h-3z" fill="#eaedf4"/>
 <path d="m17 3v1h2v-1zm3 0v1h7v-1zm8 0v1h3v-1zm-11 2v1h2v-1zm3 0v1h7v-1zm8 0v1h3v-1zm-11 2v1h2v-1zm3 0v1h7v-1zm8 0v1h3v-1zm-11 3v1h2v-1zm3 0v1h7v-1zm8 0v1h3v-1zm-11 2v1h2v-1zm3 0v1h7v-1zm8 0v1h3v-1zm-11 2v1h2v-1zm3 0v1h7v-1zm8 0v1h3v-1z" fill-opacity=".3"/>
 <path d="m17 4v1h2v-1z" fill="#c5a2ec"/>
 <path d="m17 6v1h2v-1z" fill="#ec8e8e"/>
 <path d="m17 9v1h2v-1z" fill="#8ebbec"/>
 <path d="m17 11v1h2v-1z" fill="#a7dd8c"/>
 <path d="m17 13v1h2v-1z" fill="#fac090"/>
</svg>
